<?xml version="1.0" encoding="utf-8"?>
<!-- Generator: Adobe Illustrator 17.0.0, SVG Export Plug-In . SVG Version: 6.00 Build 0)  -->
<!DOCTYPE svg PUBLIC "-//W3C//DTD SVG 1.1//EN" "http://www.w3.org/Graphics/SVG/1.1/DTD/svg11.dtd">
<svg version="1.1" id="Camada_1" xmlns="http://www.w3.org/2000/svg" xmlns:xlink="http://www.w3.org/1999/xlink" x="0px" y="0px"
	 width="436px" height="220px" viewBox="0 0 436 220" enable-background="new 0 0 436 220" xml:space="preserve">
<g>
	<g>
		<rect x="139.292" y="64.702" fill="#EC1651" width="6.778" height="91.297"/>
		<rect x="67.387" y="108.396" fill="#EC1651" width="33.106" height="6.259"/>
		<polygon fill="#EC1651" points="42.068,64.702 42.068,155.998 48.849,155.998 48.849,114.655 48.858,114.655 48.858,108.396 
			48.849,108.396 48.849,70.964 119.167,70.964 119.167,64.702 		"/>
		<path fill="#EC1651" d="M350.02,64.351h-54.031v91.291h6.778V70.614h46.734c16.435,0,27.647,7.564,27.647,22.037v0.261
			c0,13.563-11.475,22.435-28.427,22.435h-21.388v6.259h20.996c19.043,0,35.603-9.91,35.603-29.086v-0.255
			C383.932,74.659,370.106,64.351,350.02,64.351"/>
		<polygon fill="#EC1651" points="256.532,115.346 224.879,64.001 218.352,64.001 161.963,155.951 169.002,155.951 221.483,71.441 
			248.837,115.346 		"/>
		<polygon fill="#EC1651" points="266.948,132.239 259.363,132.239 274.136,155.951 281.566,155.951 		"/>
	</g>
</g>
</svg>
